HIERARCHY
ROOT Hips
{
 OFFSET 0.000000 0.000000 0.000000
 CHANNELS 6 Xposition Yposition Zposition Yrotation Xrotation Zrotation
 JOINT Chest
 {
  OFFSET 0.000000 9.585900 0.002600
  CHANNELS 3 Yrotation Xrotation Zrotation
  JOINT Chest2
  {
   OFFSET 0.000000 9.601200 -0.005300
   CHANNELS 3 Yrotation Xrotation Zrotation
   JOINT Chest3
   {
    OFFSET 0.000000 9.561800 0.000000
    CHANNELS 3 Yrotation Xrotation Zrotation
    JOINT Chest4
    {
     OFFSET 0.000000 9.552100 0.000000
     CHANNELS 3 Yrotation Xrotation Zrotation
     JOINT Neck
     {
      OFFSET 0.000000 14.453000 0.000000
      CHANNELS 3 Yrotation Xrotation Zrotation
      JOINT Head
      {
       OFFSET 0.000000 8.936500 -0.011300
       CHANNELS 3 Yrotation Xrotation Zrotation
       End Site
       {
        OFFSET 0.000000 17.073600 -0.006000
       }
      }
     }
     JOINT RightCollar
     {
      OFFSET -2.921100 9.558500 0.000000
      CHANNELS 3 Yrotation Xrotation Zrotation
      JOINT RightShoulder
      {
       OFFSET -13.519700 0.000000 0.000000
       CHANNELS 3 Yrotation Xrotation Zrotation
       JOINT RightElbow
       {
        OFFSET 0.000000 -29.696600 0.000000
        CHANNELS 3 Yrotation Xrotation Zrotation
        JOINT RightWrist
        {
         OFFSET 0.000000 -24.004700 0.000000
         CHANNELS 3 Yrotation Xrotation Zrotation
         End Site
         {
          OFFSET 0.000000 -17.728500 0.000000
         }
        }
       }
      }
     }
     JOINT LeftCollar
     {
      OFFSET 2.921100 9.558500 0.000000
      CHANNELS 3 Yrotation Xrotation Zrotation
      JOINT LeftShoulder
      {
       OFFSET 13.519700 0.000000 0.000000
       CHANNELS 3 Yrotation Xrotation Zrotation
       JOINT LeftElbow
       {
        OFFSET 0.000000 -29.696600 0.000000
        CHANNELS 3 Yrotation Xrotation Zrotation
        JOINT LeftWrist
        {
         OFFSET 0.000000 -24.004700 0.000000
         CHANNELS 3 Yrotation Xrotation Zrotation
         End Site
         {
          OFFSET 0.000000 -17.728500 0.000000
         }
        }
       }
      }
     }
    }
   }
  }
 }
 JOINT RightHip
 {
  OFFSET -7.771700 -0.012900 -0.001300
  CHANNELS 3 Yrotation Xrotation Zrotation
  JOINT RightKnee
  {
   OFFSET 0.000000 -40.869800 0.001200
   CHANNELS 3 Yrotation Xrotation Zrotation
   JOINT RightAnkle
   {
    OFFSET 0.000000 -39.717900 0.002100
    CHANNELS 3 Yrotation Xrotation Zrotation
    JOINT RightToe
    {
     OFFSET 0.000000 -4.965400 11.033500
     CHANNELS 3 Yrotation Xrotation Zrotation
     End Site
     {
      OFFSET 0.000000 -1.423100 5.872300
     }
    }
   }
  }
 }
 JOINT LeftHip
 {
  OFFSET 7.771700 -0.012900 -0.001300
  CHANNELS 3 Yrotation Xrotation Zrotation
  JOINT LeftKnee
  {
   OFFSET 0.000000 -40.869800 0.001200
   CHANNELS 3 Yrotation Xrotation Zrotation
   JOINT LeftAnkle
   {
    OFFSET 0.000000 -39.717900 0.002100
    CHANNELS 3 Yrotation Xrotation Zrotation
    JOINT LeftToe
    {
     OFFSET 0.000000 -4.965400 11.033500
     CHANNELS 3 Yrotation Xrotation Zrotation
     End Site
     {
      OFFSET 0.000000 -1.423100 5.872300
     }
    }
   }
  }
 }
}
MOTION
Frames: 6
Frame Time: 0.008333
-2.960631 59.149668 49.211780 179.867125 -29.397625 -8.549787 1.816957 22.329906 4.595772 0.145900 3.187923 0.387493 0.216096 5.168555 0.629639 1.110653 18.974876 2.482811 1.129379 12.661699 -1.656829 2.830541 -12.210491 -3.591605 3.115463 -3.171400 -0.446980 13.037082 -19.431854 -21.243207 143.200872 -77.820634 -105.490898 20.844728 -17.922553 -44.893740 -6.922465 -5.776057 0.021093 -0.970783 -9.731826 1.854167 -107.057084 -83.256690 71.147431 -4.349544 -10.003249 35.036929 1.181427 -39.310017 1.879455 -0.290078 65.822936 2.141278 3.482630 7.016388 4.521428 -0.049624 0.160214 -0.013513 -14.303873 -47.801019 8.153474 30.006735 67.162133 31.923940 -7.915755 29.875668 2.049698 -0.153353 -14.807218 -6.640986
-2.965679 59.151276 49.209542 179.879393 -29.400368 -8.556621 1.828896 22.328735 4.606603 0.143835 3.188490 0.386790 0.217843 5.167673 0.630399 1.117798 18.973005 2.486597 1.105980 12.648377 -1.675427 2.794717 -12.266453 -3.664213 3.101077 -3.174908 -0.445607 13.110235 -19.465999 -21.282070 143.210484 -77.848720 -105.500225 20.835106 -17.907665 -44.923851 -6.943278 -5.773292 0.026806 -0.956111 -9.745808 1.864491 -107.269166 -83.247466 71.349567 -4.339024 -10.001703 35.052288 1.208873 -39.305712 1.867801 -0.301183 65.828482 2.131566 3.478798 7.008791 4.535959 -0.053777 0.160759 -0.009450 -14.302161 -47.796776 8.148009 30.018544 67.154563 31.934322 -7.922396 29.876022 2.055829 -0.155739 -14.805930 -6.638984
-2.969224 59.152571 49.208305 179.887785 -29.399386 -8.571148 1.842710 22.325490 4.625384 0.144880 3.186908 0.385574 0.215495 5.168062 0.630777 1.127628 18.970926 2.489482 1.084838 12.646150 -1.676771 2.769688 -12.322001 -3.735657 3.087491 -3.179391 -0.443423 13.136528 -19.476357 -21.297296 143.206652 -77.865497 -105.504305 20.832004 -17.931236 -44.932628 -6.944089 -5.777952 0.034781 -0.958931 -9.751487 1.872091 -107.637903 -83.232676 71.719236 -4.300952 -9.976018 35.041020 1.232459 -39.304639 1.870689 -0.350276 65.830373 2.087114 3.478526 7.004126 4.557014 -0.050113 0.161753 -0.012785 -14.271923 -47.797115 8.138093 29.971287 67.156105 31.912859 -7.938339 29.868335 2.030013 -0.139006 -14.798155 -6.618678
-2.974137 59.153761 49.206782 179.911673 -29.399383 -8.585920 1.856761 22.319284 4.641414 0.129141 3.190172 0.387134 0.204575 5.170352 0.629689 1.133936 18.969689 2.490701 1.075109 12.622824 -1.708633 2.741085 -12.360222 -3.779728 3.102848 -3.186734 -0.447226 13.126110 -19.477397 -21.300051 143.332045 -77.856471 -105.606579 20.824854 -17.915201 -44.951583 -6.918883 -5.788438 0.037757 -0.977304 -9.750422 1.879606 -107.797868 -83.233402 71.870845 -4.289366 -9.968569 35.043819 1.245138 -39.300694 1.862589 -0.366850 65.835343 2.071957 3.475739 6.997433 4.576412 -0.054416 0.160790 -0.014027 -14.254904 -47.796785 8.120908 29.943417 67.151051 31.903061 -7.955919 29.872195 2.008805 -0.132254 -14.798561 -6.597325
-2.979315 59.154222 49.206467 179.921342 -29.394010 -8.593444 1.856610 22.313077 4.648670 0.135852 3.189737 0.388293 0.205601 5.168528 0.628842 1.128032 18.971412 2.491788 1.063865 12.600226 -1.739921 2.715832 -12.398476 -3.825218 3.141824 -3.203625 -0.462996 13.089060 -19.471469 -21.290523 143.436404 -77.850383 -105.690621 20.828440 -17.916287 -44.974278 -6.919994 -5.791060 0.040808 -0.974682 -9.752907 1.885626 -107.965894 -83.230075 72.036483 -4.301751 -10.005257 35.072262 1.266507 -39.305462 1.856491 -0.414833 65.839534 2.025570 3.481900 6.991886 4.597050 -0.055006 0.161147 -0.016108 -14.232555 -47.803845 8.113128 29.916603 67.148235 31.884591 -7.973553 29.880078 2.005529 -0.124119 -14.806807 -6.587585
-2.985144 59.154619 49.206042 179.930875 -29.389658 -8.598396 1.856335 22.308388 4.654321 0.140397 3.191086 0.386721 0.209263 5.165376 0.633411 1.127878 18.970464 2.494435 1.040822 12.562933 -1.793699 2.688511 -12.420167 -3.848718 3.140351 -3.206880 -0.470584 13.138505 -19.495310 -21.318957 143.415716 -77.875630 -105.688012 20.836192 -17.932023 -44.998268 -6.928980 -5.792361 0.041049 -0.978817 -9.750839 1.886319 -108.143570 -83.220513 72.219958 -4.296651 -10.010913 35.079901 1.287972 -39.308983 1.848326 -0.440181 65.843963 1.997804 3.479392 6.982879 4.618221 -0.056994 0.163700 -0.016623 -14.200866 -47.814248 8.101744 29.869818 67.154148 31.841276 -7.971465 29.896722 2.021844 -0.126796 -14.821117 -6.579759
